<svg width="873" height="405" viewBox="0 0 873 405" fill="none" xmlns="http://www.w3.org/2000/svg">
<path d="M375.45 151.65L442.95 48.15C451.65 34.05 454.8 23.4 452.4 16.2C450 8.99998 442.05 5.39998 428.55 5.39998C427.95 5.39998 427.65 4.49999 427.65 2.69999C427.65 0.899997 427.95 0 428.55 0C436.65 0 444.45 0.299996 451.95 0.899988C459.45 1.19998 469.2 1.34998 481.2 1.34998C488.7 1.34998 494.7 1.19998 499.2 0.899988C504 0.299996 509.7 0 516.3 0C516.9 0 517.2 0.899997 517.2 2.69999C517.2 4.49999 516.9 5.39998 516.3 5.39998C509.1 5.39998 501.75 7.19999 494.25 10.8C486.75 14.4 479.55 19.5 472.65 26.1C466.05 32.7 459.75 40.65 453.75 49.95L383.1 158.4L375.45 151.65ZM370.5 158.85L289.5 40.05C281.1 27.15 273.15 18.15 265.65 13.05C258.15 7.94999 249.45 5.39998 239.55 5.39998C238.65 5.39998 238.2 4.49999 238.2 2.69999C238.2 0.899997 238.65 0 239.55 0C244.65 0 250.05 0.299996 255.75 0.899988C261.45 1.19998 266.7 1.34998 271.5 1.34998C279.6 1.34998 287.4 1.34998 294.9 1.34998C302.7 1.04999 309.9 0.74999 316.5 0.449994C323.4 0.149998 329.4 0 334.5 0C335.1 0 335.4 0.899997 335.4 2.69999C335.4 4.49999 335.1 5.39998 334.5 5.39998C322.8 5.39998 315.45 7.04998 312.45 10.35C309.75 13.65 310.8 18.75 315.6 25.65L392.55 138.6L370.5 158.85ZM364.2 141.75L393.45 137.7V244.8C393.45 253.5 394.35 260.1 396.15 264.6C397.95 269.1 401.55 272.1 406.95 273.6C412.35 275.1 420.6 275.85 431.7 275.85C432.6 275.85 433.05 276.75 433.05 278.55C433.05 280.35 432.6 281.25 431.7 281.25C424.5 281.25 416.4 281.1 407.4 280.8C398.7 280.5 389.1 280.35 378.6 280.35C368.7 280.35 359.1 280.5 349.8 280.8C340.5 281.1 332.4 281.25 325.5 281.25C324.6 281.25 324.15 280.35 324.15 278.55C324.15 276.75 324.6 275.85 325.5 275.85C336.3 275.85 344.55 275.1 350.25 273.6C355.95 272.1 359.7 269.1 361.5 264.6C363.3 260.1 364.2 253.5 364.2 244.8V141.75ZM612.452 283.95C611.252 284.55 610.052 284.85 608.852 284.85C604.952 284.85 601.202 281.7 597.602 275.4C594.002 268.8 592.202 259.35 592.202 247.05V162C592.202 143.4 589.502 130.35 584.102 122.85C579.002 115.35 572.252 111.6 563.852 111.6C556.352 111.6 550.202 113.55 545.402 117.45C540.602 121.05 537.002 125.4 534.602 130.5C532.502 135.6 531.002 140.4 530.102 144.9C529.202 149.1 527.702 153.3 525.602 157.5C523.502 161.4 519.302 163.35 513.002 163.35C507.902 163.35 504.152 162 501.752 159.3C499.352 156.3 498.152 153.15 498.152 149.85C498.152 144.15 500.852 138.6 506.252 133.2C511.952 127.8 519.002 122.85 527.402 118.35C536.102 113.55 545.102 109.8 554.402 107.1C564.002 104.4 572.552 103.05 580.052 103.05C592.352 103.05 601.652 107.1 607.952 115.2C614.252 123 617.402 134.1 617.402 148.5V232.65C617.402 243.15 618.752 250.8 621.452 255.6C624.152 260.4 628.502 262.8 634.502 262.8C639.902 262.8 647.402 260.85 657.002 256.95C658.502 256.35 659.552 256.95 660.152 258.75C660.752 260.25 660.302 261.3 658.802 261.9L612.452 283.95ZM531.452 284.4C520.052 284.4 511.352 281.4 505.352 275.4C499.352 269.1 496.352 261.75 496.352 253.35C496.352 247.35 497.852 241.95 500.852 237.15C504.152 232.05 509.252 227.4 516.152 223.2C523.052 219 531.902 214.95 542.702 211.05L596.702 190.8L598.052 196.65L550.352 215.1C544.952 217.2 540.452 219.6 536.852 222.3C533.252 225 530.552 228 528.752 231.3C527.252 234.6 526.502 238.2 526.502 242.1C526.502 249 528.752 255 533.252 260.1C537.752 265.2 543.902 267.75 551.702 267.75C554.702 267.75 557.852 267.3 561.152 266.4C564.452 265.5 568.502 263.55 573.302 260.55L601.652 243.45L602.552 249.3L569.252 270.9C562.052 275.7 555.452 279.15 549.452 281.25C543.752 283.35 537.752 284.4 531.452 284.4ZM674.078 405C673.178 405 672.728 404.1 672.728 402.3C672.728 400.5 673.178 399.6 674.078 399.6C685.778 399.6 693.428 397.65 697.028 393.75C700.628 389.85 702.428 381.45 702.428 368.55V157.05C702.428 146.55 701.228 138.9 698.828 134.1C696.428 129.3 692.228 126.9 686.228 126.9C683.228 126.9 679.628 127.5 675.428 128.7C671.528 129.6 667.178 131.1 662.378 133.2C661.178 133.8 660.128 133.35 659.228 131.85C658.328 130.05 658.478 128.85 659.678 128.25L709.628 104.4C710.528 104.1 711.578 103.95 712.778 103.95C716.978 103.95 720.428 107.4 723.128 114.3C726.128 120.9 727.628 130.8 727.628 144V368.55C727.628 376.95 728.678 383.4 730.778 387.9C733.178 392.4 737.528 395.4 743.828 396.9C750.428 398.7 760.028 399.6 772.628 399.6C773.228 399.6 773.528 400.5 773.528 402.3C773.528 404.1 773.228 405 772.628 405C764.828 405 755.978 404.85 746.078 404.55C736.478 404.25 726.278 404.1 715.478 404.1C707.678 404.1 700.028 404.25 692.528 404.55C685.328 404.85 679.178 405 674.078 405ZM775.328 287.1C763.928 287.1 753.878 285.75 745.178 283.05C736.478 280.35 726.728 275.25 715.928 267.75L722.228 243C730.628 252.9 739.778 261.15 749.678 267.75C759.578 274.35 772.628 277.65 788.828 277.65C804.428 277.65 817.328 270.75 827.528 256.95C838.028 243.15 843.278 223.65 843.278 198.45C843.278 172.35 837.578 152.55 826.178 139.05C814.778 125.55 800.828 118.8 784.328 118.8C771.128 118.8 759.428 122.55 749.228 130.05C739.328 137.25 729.578 145.95 719.978 156.15L716.378 152.55C731.678 134.85 746.378 121.95 760.478 113.85C774.578 105.75 788.828 101.7 803.228 101.7C815.528 101.7 826.928 105 837.428 111.6C847.928 117.9 856.328 127.2 862.628 139.5C868.928 151.8 872.078 166.8 872.078 184.5C872.078 202.8 868.928 218.4 862.628 231.3C856.628 244.2 848.528 254.85 838.328 263.25C828.428 271.35 817.928 277.35 806.828 281.25C795.728 285.15 785.228 287.1 775.328 287.1Z" fill="#EEDAC0"/>
<path d="M240 206.25C199.708 231.25 168.867 188.068 143 221.25" stroke="#F8EADC" stroke-width="3" stroke-linecap="round"/>
<path d="M180.227 109.588C180.228 111.336 182.467 112.752 185.228 112.752C185.266 112.752 185.305 112.751 185.343 112.75L185.344 112.752L185.343 112.753C185.305 112.753 185.266 112.752 185.228 112.752C182.467 112.752 180.228 114.169 180.227 115.916H180.226C180.224 114.193 178.05 112.792 175.343 112.753V112.75C178.05 112.711 180.225 111.311 180.227 109.588Z" fill="#C4A066"/>
<path d="M145.024 94.4271C151.786 97.0454 158.649 95.6039 160.372 91.2082C158.684 95.6175 162.785 101.308 169.546 103.929L169.545 103.93C162.868 101.344 156.092 102.716 154.264 106.984L154.257 106.981C155.781 102.596 151.7 97.0155 145.024 94.4271ZM160.453 91.0006C160.454 91.001 160.455 91.0025 160.456 91.0029C160.433 91.0576 160.41 91.1125 160.388 91.1681C160.409 91.1124 160.429 91.0563 160.449 91.0001C160.45 91.0006 160.452 91.0001 160.453 91.0006Z" fill="#C4A066"/>
<path d="M203.516 95.3869C198.986 97.1404 194.387 96.1698 193.244 93.2185C193.228 93.1772 193.216 93.1342 193.201 93.0925C193.199 93.0932 193.197 93.093 193.195 93.0937C193.194 93.0943 193.193 93.0958 193.191 93.0964C193.208 93.1369 193.228 93.1772 193.244 93.2185C194.386 96.1688 191.645 99.9824 187.12 101.74C191.584 100.014 196.111 100.934 197.334 103.788L197.344 103.784C196.324 100.85 199.051 97.119 203.516 95.3869Z" fill="#C4A066"/>
<path d="M224.099 142.868C232.225 142.471 241.263 144.582 252.226 150.715C252.082 151.03 252 151.38 252 151.75C252 152.256 252.152 152.726 252.41 153.12C241.157 146.609 232.14 144.478 224.196 144.866C216.216 145.256 209.201 148.19 201.946 152.015C187.472 159.645 172.119 170.822 147 170.822C146.448 170.822 146 170.374 146 169.822C146 169.27 146.448 168.822 147 168.822C171.498 168.822 186.31 157.997 201.014 150.246C208.348 146.38 215.676 143.279 224.099 142.868Z" fill="#F8EADC"/>
<path d="M78.4749 141.708C99.4923 141.232 119.611 150.097 138.699 161.103C148.258 166.614 157.666 172.728 166.829 178.547C176.024 184.386 184.986 189.935 193.781 194.418C211.422 203.411 227.879 207.845 243.65 202.137C243.72 202.112 243.791 202.091 243.863 202.072C242.244 203.517 241.164 205.701 241.019 208.176C224.646 212.395 208.048 207.303 191.51 198.873C182.485 194.272 173.347 188.609 164.15 182.769C154.921 176.909 145.641 170.876 136.202 165.434C117.296 154.533 98.1777 146.262 78.5881 146.706C59.1549 147.146 38.7877 156.186 17.3918 180.946C16.4891 181.99 14.9101 182.105 13.8655 181.203C12.8209 180.3 12.7059 178.721 13.6086 177.676C35.6897 152.123 57.301 142.187 78.4749 141.708Z" fill="#F8EADC"/>
<path d="M86.9936 199.289C102.317 199.138 116.462 204.756 130.225 211.847C137.103 215.391 143.972 219.351 150.836 223.168C157.726 226.999 164.65 230.707 171.755 233.827C185.951 240.06 200.771 243.898 217.227 241.627C217.445 241.597 217.659 241.604 217.864 241.642C215.983 242.359 214.556 243.994 214.13 245.999C198.143 247.408 183.707 243.443 170.147 237.489C162.863 234.291 155.805 230.508 148.892 226.664C141.953 222.806 135.196 218.908 128.393 215.403C114.795 208.396 101.36 203.148 87.0326 203.289C72.7753 203.43 57.3509 208.916 39.8012 223.948C38.9624 224.666 37.7004 224.569 36.9819 223.73C36.2633 222.891 36.3607 221.629 37.1996 220.91C55.2997 205.406 71.5998 199.441 86.9936 199.289Z" fill="#F8EADC"/>
<path d="M82.3037 36.1875C47.2371 58.6755 24 97.9993 24 142.75C24 212.614 80.636 269.25 150.5 269.25C166.047 269.25 180.937 266.443 194.695 261.312C175.017 273.932 151.613 281.25 126.5 281.25C56.636 281.25 0 224.614 0 154.75C0 100.433 34.2349 54.1135 82.3037 36.1875Z" fill="#C4A066"/>
<circle cx="126.5" cy="154.75" r="126" stroke="#F8EADC"/>
</svg>
