<svg width="257" height="253" viewBox="0 0 257 253" fill="none" xmlns="http://www.w3.org/2000/svg">
<path d="M82.3037 7.9375C47.2371 30.4255 24 69.7493 24 114.5C24 184.364 80.636 241 150.5 241C166.047 241 180.937 238.193 194.695 233.062C175.017 245.682 151.613 253 126.5 253C56.636 253 0 196.364 0 126.5C0 72.1828 34.2349 25.8635 82.3037 7.9375Z" fill="white"/>
<path d="M240 177C199.708 203.667 168.867 157.606 143 193" stroke="white" stroke-linecap="round"/>
<path d="M180.227 81.338C180.228 83.0856 182.467 84.502 185.228 84.5021C185.266 84.5021 185.305 84.5007 185.343 84.5001L185.344 84.5021L185.343 84.5031C185.305 84.5025 185.266 84.5021 185.228 84.5021C182.467 84.5021 180.228 85.9185 180.227 87.6661H180.226C180.224 85.9432 178.05 84.5424 175.343 84.5031V84.5001C178.05 84.4608 180.225 83.0609 180.227 81.338Z" fill="#D9D9D9"/>
<path d="M145.024 66.1771C151.786 68.7954 158.649 67.3539 160.372 62.9582C158.684 67.3675 162.785 73.0576 169.546 75.6787L169.545 75.6796C162.868 73.094 156.092 74.466 154.264 78.7338L154.257 78.731C155.781 74.3459 151.7 68.7655 145.024 66.1771ZM160.453 62.7506C160.454 62.751 160.455 62.7525 160.456 62.7529C160.433 62.8076 160.41 62.8625 160.388 62.9181C160.409 62.8624 160.429 62.8063 160.449 62.7501C160.45 62.7506 160.452 62.7501 160.453 62.7506Z" fill="#D9D9D9"/>
<path d="M203.516 67.1369C198.986 68.8904 194.387 67.9198 193.244 64.9685C193.228 64.9272 193.216 64.8842 193.201 64.8425C193.199 64.8432 193.197 64.843 193.195 64.8437C193.194 64.8443 193.193 64.8458 193.191 64.8464C193.208 64.8869 193.228 64.9272 193.244 64.9685C194.386 67.9188 191.645 71.7324 187.12 73.4901C191.584 71.7643 196.111 72.684 197.334 75.5377L197.344 75.5338C196.324 72.6005 199.051 68.869 203.516 67.1369Z" fill="#D9D9D9"/>
<circle cx="126.5" cy="126.5" r="126" stroke="white"/>
<path d="M78.4976 114.457C99.2294 113.987 119.149 122.734 138.201 133.719C147.735 139.217 157.117 145.315 166.293 151.142C175.489 156.981 184.486 162.553 193.327 167.059C210.517 175.822 226.827 180.403 242.556 175.317C241.861 176.339 241.367 177.545 241.14 178.86C225.006 183.159 208.562 178.193 191.964 169.732C182.985 165.155 173.883 159.514 164.686 153.674C155.47 147.822 146.164 141.774 136.702 136.318C117.759 125.396 98.4409 117.007 78.5659 117.457C58.7845 117.905 38.1682 127.123 16.6353 152.042C16.0937 152.668 15.1468 152.737 14.52 152.196C13.8932 151.654 13.8241 150.707 14.3657 150.081C36.3098 124.686 57.6718 114.928 78.4976 114.457Z" fill="white"/>
<path d="M87.0029 172.039C102.078 171.89 116.045 177.416 129.767 184.486C136.626 188.021 143.467 191.965 150.35 195.792C157.245 199.626 164.202 203.353 171.353 206.492C185.459 212.686 200.266 216.569 216.709 214.453C215.836 214.916 215.107 215.708 214.626 216.7C198.631 218.239 184.184 214.311 170.548 208.323C163.309 205.145 156.285 201.38 149.378 197.54C142.458 193.692 135.672 189.779 128.851 186.264C115.211 179.236 101.599 173.895 87.0225 174.039C72.4809 174.183 56.8378 179.788 39.1504 194.938C38.7309 195.298 38.0995 195.25 37.7402 194.83C37.381 194.411 37.4302 193.779 37.8496 193.42C55.8123 178.034 71.8931 172.188 87.0029 172.039Z" fill="white"/>
<g filter="url(#filter0_d_0_1)">
<path d="M224.123 115.118C232.164 114.726 241.145 116.817 252.099 122.966C252.035 123.132 252 123.312 252 123.5C252 123.731 252.053 123.949 252.146 124.145C241.068 117.827 232.112 115.729 224.172 116.117C216.081 116.512 208.988 119.489 201.713 123.323C187.181 130.983 171.964 142.072 147 142.072C146.724 142.072 146.5 141.848 146.5 141.572C146.5 141.296 146.724 141.072 147 141.072C171.653 141.072 186.601 130.159 201.247 122.438C208.561 118.583 215.811 115.524 224.123 115.118Z" fill="white"/>
</g>
<defs>
<filter id="filter0_d_0_1" x="142.5" y="115.072" width="113.646" height="35" filterUnits="userSpaceOnUse" color-interpolation-filters="sRGB">
<feFlood flood-opacity="0" result="BackgroundImageFix"/>
<feColorMatrix in="SourceAlpha" type="matrix" values="0 0 0 0 0 0 0 0 0 0 0 0 0 0 0 0 0 0 127 0" result="hardAlpha"/>
<feOffset dy="4"/>
<feGaussianBlur stdDeviation="2"/>
<feComposite in2="hardAlpha" operator="out"/>
<feColorMatrix type="matrix" values="0 0 0 0 0 0 0 0 0 0 0 0 0 0 0 0 0 0 0.25 0"/>
<feBlend mode="normal" in2="BackgroundImageFix" result="effect1_dropShadow_0_1"/>
<feBlend mode="normal" in="SourceGraphic" in2="effect1_dropShadow_0_1" result="shape"/>
</filter>
</defs>
</svg>
